<svg width="166" height="66" viewBox="0 0 166 66" fill="none" xmlns="http://www.w3.org/2000/svg">
<g clip-path="url(#clip0_0_1)">
<g filter="url(#filter0_dd_0_1)">
<path d="M89.4498 48.9219C89.4185 49.1562 89.3326 49.3359 89.192 49.4609C89.067 49.5859 88.9185 49.7031 88.7467 49.8125C88.6685 49.7969 88.5904 49.7891 88.5123 49.7891C88.4498 49.7734 88.3795 49.7656 88.3014 49.7656C87.817 49.75 87.356 49.8125 86.9185 49.9531C86.4967 50.0938 86.0592 50.1953 85.606 50.2578C85.4498 50.2891 85.3014 50.3047 85.1607 50.3047C85.0357 50.2891 84.9029 50.2969 84.7623 50.3281C84.2623 50.4062 83.731 50.4688 83.1685 50.5156C82.606 50.5625 82.0435 50.625 81.481 50.7031C80.9185 50.7656 80.3639 50.8516 79.817 50.9609C79.2857 51.0547 78.7857 51.1953 78.317 51.3828C78.2701 51.3516 78.2232 51.3203 78.1764 51.2891C78.1295 51.2422 78.0748 51.2188 78.0123 51.2188C77.856 51.2188 77.7076 51.2422 77.567 51.2891C77.4264 51.3359 77.2857 51.3516 77.1451 51.3359C76.9889 51.4297 76.817 51.5 76.6295 51.5469C76.4576 51.5781 76.2779 51.6094 76.0904 51.6406C75.9185 51.6562 75.7467 51.6875 75.5748 51.7344C75.4029 51.7812 75.2389 51.8672 75.0826 51.9922C74.9576 51.9297 74.8014 51.8984 74.6139 51.8984C74.442 51.8828 74.3248 51.8203 74.2623 51.7109C73.9029 51.8828 73.5201 51.9922 73.1139 52.0391C72.7232 52.0859 72.3248 52.1016 71.9185 52.0859C71.6529 52.0703 71.3482 52.0312 71.0045 51.9688C70.6607 51.9062 70.317 51.8203 69.9732 51.7109C69.6295 51.5859 69.3092 51.4453 69.0123 51.2891C68.7154 51.1172 68.4889 50.9141 68.3326 50.6797C68.2232 50.5234 68.1451 50.3516 68.0982 50.1641C68.0514 49.9766 67.942 49.8359 67.7701 49.7422C67.817 49.3828 67.8717 49.0312 67.9342 48.6875C67.9967 48.3438 68.0592 47.9922 68.1217 47.6328C68.4342 47.3672 68.731 47.0859 69.0123 46.7891C69.2935 46.4922 69.5592 46.1797 69.8092 45.8516C70.106 45.7109 70.3795 45.5391 70.6295 45.3359C70.8951 45.1328 71.1529 44.9297 71.4029 44.7266C71.6685 44.5078 71.9264 44.2969 72.1764 44.0938C72.442 43.8906 72.7232 43.7109 73.0201 43.5547C73.067 43.4453 73.1295 43.3594 73.2076 43.2969C73.3014 43.2188 73.3951 43.1484 73.4889 43.0859C73.5826 43.0078 73.6685 42.9297 73.7467 42.8516C73.8248 42.7578 73.8795 42.6484 73.9107 42.5234C74.4576 42.1953 74.9342 41.7812 75.3404 41.2812C75.7467 40.7812 76.0123 40.2188 76.1373 39.5938C75.8717 39.375 75.567 39.2344 75.2232 39.1719C74.8951 39.0938 74.5514 39.0391 74.192 39.0078C73.8795 38.9922 73.5514 38.9922 73.2076 39.0078C72.8795 39.0234 72.5435 39.0156 72.1998 38.9844C71.856 39.0938 71.4967 39.1641 71.1217 39.1953C70.7623 39.2266 70.4029 39.2578 70.0435 39.2891C69.6842 39.3047 69.3248 39.3516 68.9654 39.4297C68.6217 39.4922 68.2857 39.6172 67.9576 39.8047C67.8951 39.8047 67.8326 39.7969 67.7701 39.7812C67.7232 39.7656 67.6685 39.7578 67.606 39.7578C67.106 39.7422 66.6373 39.8438 66.1998 40.0625C65.7623 40.2656 65.3326 40.4688 64.9107 40.6719C64.8795 40.7344 64.8639 40.7812 64.8639 40.8125C64.8639 40.9062 64.8795 41 64.9107 41.0938C64.9576 41.1719 64.981 41.2578 64.981 41.3516C64.9654 41.3672 64.9576 41.3828 64.9576 41.3984C64.9576 41.4141 64.9498 41.4297 64.9342 41.4453C64.9185 41.5234 64.8951 41.5938 64.8639 41.6562C64.8482 41.7188 64.8248 41.7891 64.7935 41.8672C64.6217 42.3672 64.5279 42.8594 64.5123 43.3438C64.4967 43.75 64.4967 44.1484 64.5123 44.5391C64.5279 44.9297 64.5279 45.3281 64.5123 45.7344C64.481 46.2344 64.4029 46.7031 64.2779 47.1406C64.356 47.5156 64.4264 47.9141 64.4889 48.3359C64.5514 48.7422 64.6295 49.1484 64.7232 49.5547C64.817 49.9609 64.9264 50.3594 65.0514 50.75C65.192 51.125 65.3717 51.4844 65.5904 51.8281C65.5748 51.8594 65.5826 51.8828 65.6139 51.8984C65.6451 51.9141 65.6764 51.9219 65.7076 51.9219H65.8951C65.9732 51.9219 66.0045 51.9531 65.9889 52.0156C66.0201 52.0625 66.0435 52.1094 66.0592 52.1562C66.0748 52.1875 66.106 52.2188 66.1529 52.25C66.1842 52.2969 66.1842 52.3594 66.1529 52.4375C66.1373 52.75 66.0592 53.0391 65.9185 53.3047C65.7779 53.5703 65.692 53.8594 65.6607 54.1719C65.4732 54.2188 65.3014 54.2422 65.1451 54.2422C64.8795 54.2266 64.6451 54.1484 64.442 54.0078C64.2389 53.8828 64.0514 53.7266 63.8795 53.5391C63.7076 53.3516 63.5435 53.1641 63.3873 52.9766C63.231 52.7734 63.0592 52.6016 62.8717 52.4609C62.7623 52.0234 62.6529 51.5391 62.5435 51.0078C62.4498 50.4766 62.2857 50.0234 62.0514 49.6484C62.1139 49.5078 62.1451 49.3359 62.1451 49.1328C62.1607 48.8203 62.1295 48.5156 62.0514 48.2188C61.9889 47.9062 61.9732 47.5938 62.0045 47.2812C62.0045 47.1094 62.0201 46.9375 62.0514 46.7656C62.0982 46.5938 62.1295 46.4219 62.1451 46.25C62.1607 45.9844 62.1295 45.7266 62.0514 45.4766C61.9889 45.2266 61.9654 44.9688 61.981 44.7031C61.9967 44.5781 62.0201 44.4609 62.0514 44.3516C62.0982 44.2266 62.1607 44.1172 62.2389 44.0234C62.1607 43.8359 62.1373 43.6562 62.1685 43.4844C62.1842 43.2188 62.2154 42.9688 62.2623 42.7344C62.3092 42.5 62.3404 42.2656 62.356 42.0312C62.356 41.9062 62.3482 41.7891 62.3326 41.6797C62.317 41.5547 62.2935 41.4375 62.2623 41.3281L62.0514 41.2578C61.9576 41.2578 61.8639 41.2812 61.7701 41.3281C61.692 41.375 61.6217 41.4297 61.5592 41.4922C61.4967 41.5547 61.442 41.6094 61.3951 41.6562C61.3482 41.6875 61.3014 41.7031 61.2545 41.7031C61.2232 41.7031 61.1842 41.7031 61.1373 41.7031C61.106 41.6875 61.0748 41.6797 61.0435 41.6797C61.0123 41.6797 60.9498 41.7109 60.856 41.7734C60.7779 41.8359 60.6764 41.9062 60.5514 41.9844C60.442 42.0469 60.3326 42.1172 60.2232 42.1953C60.1139 42.2578 60.0279 42.2969 59.9654 42.3125C59.7935 42.2812 59.6529 42.2266 59.5435 42.1484C59.4498 42.0547 59.356 41.9688 59.2623 41.8906C59.1842 41.7969 59.0982 41.7188 59.0045 41.6562C58.9107 41.5781 58.7935 41.5469 58.6529 41.5625C58.606 41.4688 58.5826 41.3672 58.5826 41.2578C58.567 41.1484 58.567 41.0391 58.5826 40.9297V40.5547C58.692 40.3516 58.8404 40.1875 59.0279 40.0625C59.1998 39.9219 59.3873 39.8047 59.5904 39.7109L60.1998 39.4297C60.4029 39.3359 60.5904 39.2188 60.7623 39.0781H60.9732C61.2545 39.0938 61.4967 39.0391 61.6998 38.9141C61.9185 38.7891 62.1217 38.6484 62.3092 38.4922C62.4967 38.3203 62.6842 38.1484 62.8717 37.9766C63.0748 37.8047 63.2935 37.6719 63.5279 37.5781C63.6998 37.6562 63.8795 37.7266 64.067 37.7891C64.2545 37.8359 64.4498 37.8672 64.6529 37.8828C64.856 37.8828 65.067 37.8516 65.2857 37.7891C65.5045 37.7266 65.6764 37.6094 65.8014 37.4375C65.8795 37.4688 65.942 37.4922 65.9889 37.5078C66.0514 37.5078 66.1217 37.5078 66.1998 37.5078C66.4342 37.5234 66.6685 37.4922 66.9029 37.4141C67.1373 37.3203 67.3639 37.2109 67.5826 37.0859C67.8951 37.1016 68.1998 37.0859 68.4967 37.0391C68.8092 36.9766 69.1139 36.9141 69.4107 36.8516C69.7232 36.7891 70.0279 36.7344 70.3248 36.6875C70.6373 36.625 70.9498 36.6016 71.2623 36.6172C71.7779 36.6328 72.2857 36.5859 72.7857 36.4766C73.2857 36.3672 73.7935 36.3281 74.3092 36.3594C74.6685 36.375 75.0201 36.4062 75.3639 36.4531C75.7232 36.4844 76.0826 36.4922 76.442 36.4766C76.6451 36.5703 76.8248 36.6562 76.981 36.7344C77.1529 36.7969 77.3639 36.8125 77.6139 36.7812C78.1139 37.2031 78.567 37.6953 78.9732 38.2578V38.6562C78.9576 39.0156 78.8951 39.3672 78.7857 39.7109C78.6764 40.0547 78.5435 40.3984 78.3873 40.7422C78.2467 41.0703 78.0904 41.3984 77.9185 41.7266C77.7467 42.0391 77.5826 42.3516 77.4264 42.6641C76.4107 43.5859 75.3951 44.5 74.3795 45.4062C73.3639 46.3125 72.317 47.1875 71.2389 48.0312C71.2076 48.1875 71.1607 48.3281 71.0982 48.4531C71.0514 48.5781 71.0201 48.7109 71.0045 48.8516C71.0045 48.9297 71.0123 48.9922 71.0279 49.0391C71.1373 49.0703 71.231 49.1328 71.3092 49.2266C71.4029 49.3047 71.4342 49.4141 71.4029 49.5547H71.6139C71.692 49.5547 71.731 49.5859 71.731 49.6484L72.106 49.6719C72.6998 49.7031 73.2935 49.6875 73.8873 49.625C74.481 49.5625 75.0748 49.4922 75.6685 49.4141C76.2779 49.3359 76.8795 49.2656 77.4732 49.2031C78.067 49.125 78.6607 49.0781 79.2545 49.0625C79.3951 49.0156 79.5435 48.9766 79.6998 48.9453C79.856 48.9141 79.9967 48.8516 80.1217 48.7578H80.192C80.3014 48.7578 80.3795 48.7891 80.4264 48.8516C80.4889 48.9141 80.5748 48.9531 80.6842 48.9688C80.7623 48.9688 80.8404 48.9531 80.9185 48.9219C81.0123 48.8906 81.106 48.8672 81.1998 48.8516C81.4185 48.7891 81.6451 48.75 81.8795 48.7344C82.1295 48.7188 82.3717 48.6953 82.606 48.6641C83.5123 48.5859 84.4107 48.5391 85.3014 48.5234C86.192 48.4922 87.0826 48.375 87.9732 48.1719C88.0514 48.2812 88.1607 48.3594 88.3014 48.4062C88.442 48.4375 88.5904 48.4766 88.7467 48.5234C88.9029 48.5547 89.0435 48.5938 89.1685 48.6406C89.3092 48.6875 89.4029 48.7812 89.4498 48.9219Z" fill="url(#paint0_angular_0_1)"/>
</g>
<g filter="url(#filter1_dd_0_1)">
<path d="M62.1523 42.1328C62.1523 42.2891 62.1445 42.4062 62.1289 42.4844C62.0507 42.5156 61.9882 42.5625 61.9414 42.625C61.8945 42.6719 61.8164 42.6875 61.707 42.6719C61.6757 42.9062 61.5976 43.1016 61.4726 43.2578C61.3476 43.4141 61.2148 43.5547 61.0742 43.6797C60.9492 43.8203 60.8242 43.9609 60.6992 44.1016C60.5742 44.2578 60.4961 44.4531 60.4648 44.6875C60.2304 44.8125 59.9961 44.9766 59.7617 45.1797C59.5429 45.3984 59.3476 45.5469 59.1757 45.625C59.0507 45.6875 58.9179 45.7344 58.7773 45.7656C58.6367 45.8125 58.4961 45.8672 58.3554 45.9297C57.9023 46.1328 57.4336 46.3438 56.9492 46.5625C56.4804 46.7812 55.9882 46.8906 55.4726 46.8906H55.3086C55.2461 46.9531 55.1679 46.9922 55.0742 47.0078C54.9804 47.0391 54.8867 47.0625 54.7929 47.0781C54.6992 47.0938 54.6054 47.1172 54.5117 47.1484C54.4179 47.1797 54.3476 47.2266 54.3007 47.2891C54.1289 47.2266 53.9414 47.1953 53.7382 47.1953H53.5742C53.3086 47.2578 53.0586 47.3047 52.8242 47.3359C52.5898 47.3672 52.3398 47.3828 52.0742 47.3828C51.6054 47.3828 51.1367 47.3516 50.6679 47.2891C50.1992 47.2266 49.7304 47.1719 49.2617 47.125C48.9648 46.8906 48.7226 46.5938 48.5351 46.2344C48.3476 45.8906 48.2539 45.5234 48.2539 45.1328C48.2539 44.8359 48.3164 44.5547 48.4414 44.2891C48.5664 44.0391 48.7304 43.8125 48.9336 43.6094H49.0039C49.1445 43.6094 49.2851 43.5781 49.4257 43.5156C49.582 43.4531 49.7304 43.4219 49.8711 43.4219C50.0273 43.4219 50.1523 43.4844 50.2461 43.6094C50.3554 43.7344 50.4336 43.8828 50.4804 44.0547C50.5429 44.2266 50.582 44.3984 50.5976 44.5703C50.6132 44.7578 50.6211 44.9062 50.6211 45.0156C50.7929 45.0938 50.9726 45.1406 51.1601 45.1562C51.3632 45.1719 51.5664 45.1797 51.7695 45.1797C51.9726 45.1797 52.1992 45.1641 52.4492 45.1328C52.6992 45.1172 52.9492 45.0781 53.1992 45.0156C53.4648 44.9688 53.7148 44.9062 53.9492 44.8281C54.1992 44.75 54.4101 44.6484 54.582 44.5234C55.4414 44.4453 56.1992 44.25 56.8554 43.9375C57.5117 43.625 58.207 43.2578 58.9414 42.8359C58.9726 42.6641 59.0351 42.5312 59.1289 42.4375C59.2382 42.3281 59.2929 42.1719 59.2929 41.9688C59.2929 41.9375 59.2851 41.9062 59.2695 41.875C59.2695 41.8281 59.2695 41.7891 59.2695 41.7578C58.957 41.3672 58.6289 41.0234 58.2851 40.7266C57.957 40.4297 57.5273 40.2344 56.9961 40.1406C56.9336 40 56.832 39.8984 56.6914 39.8359C56.5507 39.7578 56.4023 39.6875 56.2461 39.625C56.0898 39.5625 55.9414 39.5 55.8007 39.4375C55.6601 39.3594 55.5586 39.2344 55.4961 39.0625C55.0742 38.9844 54.6367 38.8906 54.1836 38.7812C53.7461 38.6562 53.3711 38.4375 53.0586 38.125C52.8086 38.1094 52.5664 38.0625 52.332 37.9844C52.1132 37.8906 51.8945 37.8047 51.6757 37.7266C51.457 37.6328 51.2304 37.5547 50.9961 37.4922C50.7617 37.4141 50.5195 37.375 50.2695 37.375C50.207 37.2656 50.1211 37.1797 50.0117 37.1172C49.9023 37.0547 49.7773 37 49.6367 36.9531C49.5117 36.9062 49.3867 36.8594 49.2617 36.8125C49.1523 36.75 49.0664 36.6641 49.0039 36.5547C48.9414 36.5703 48.8945 36.6016 48.8632 36.6484C48.832 36.6953 48.7773 36.7188 48.6992 36.7188H48.6054C48.5742 36.625 48.5117 36.5625 48.4179 36.5312C48.3242 36.4844 48.2695 36.3984 48.2539 36.2734C47.9726 36.2578 47.7148 36.2031 47.4804 36.1094C47.2617 36.0156 47.0507 35.9141 46.8476 35.8047C46.6601 35.6797 46.4648 35.5625 46.2617 35.4531C46.0586 35.3438 45.832 35.2578 45.582 35.1953C45.4257 35.0703 45.2773 34.9375 45.1367 34.7969C45.0117 34.6406 44.8476 34.5625 44.6445 34.5625C44.5976 34.5625 44.5117 34.5781 44.3867 34.6094C44.3554 34.3281 44.2382 34.1328 44.0351 34.0234C43.832 33.8984 43.6132 33.7891 43.3789 33.6953C43.2226 33.2891 43.0117 32.9297 42.7461 32.6172C42.4804 32.3047 42.1914 32.0156 41.8789 31.75C41.9101 31.6562 41.9257 31.5859 41.9257 31.5391C41.9257 31.3828 41.8867 31.25 41.8086 31.1406C41.7304 31.0156 41.6445 30.9141 41.5507 30.8359C41.332 30.1328 41.2226 29.4453 41.2226 28.7734C41.2226 27.8359 41.4336 26.9688 41.8554 26.1719C42.2617 25.3594 42.9101 24.75 43.8007 24.3438C43.8164 24.2188 43.8554 24.1094 43.9179 24.0156C43.9961 23.9219 44.0429 23.8125 44.0586 23.6875C44.1992 23.6875 44.3086 23.6562 44.3867 23.5938C44.4648 23.5312 44.5351 23.4688 44.5976 23.4062C44.6757 23.3281 44.7539 23.2578 44.832 23.1953C44.9101 23.1328 45.0117 23.0938 45.1367 23.0781C45.7304 22.5625 46.3632 22.1484 47.0351 21.8359C47.707 21.5078 48.3945 21.1719 49.0976 20.8281C49.2382 20.7656 49.3554 20.6484 49.4492 20.4766H49.5898C49.7461 20.4766 49.8632 20.4453 49.9414 20.3828C50.0351 20.3047 50.1679 20.2812 50.3398 20.3125C50.4023 20.2188 50.4804 20.1562 50.5742 20.125C50.6836 20.0938 50.7851 20.0703 50.8789 20.0547C50.9882 20.0234 51.0898 19.9844 51.1836 19.9375C51.2773 19.8906 51.3398 19.8203 51.3711 19.7266H51.5351C51.8007 19.7266 52.0586 19.6875 52.3086 19.6094C52.5586 19.5156 52.8086 19.4141 53.0586 19.3047H53.2226C53.5351 19.3047 53.8242 19.25 54.0898 19.1406C54.3711 19.0156 54.6679 18.9297 54.9804 18.8828C55.1054 18.8516 55.2304 18.8438 55.3554 18.8594C55.4804 18.875 55.6054 18.8828 55.7304 18.8828C55.8086 18.8828 55.9023 18.875 56.0117 18.8594C56.1211 18.8438 56.1992 18.7969 56.2461 18.7188H56.2929C56.3867 18.7188 56.4414 18.75 56.457 18.8125C56.4726 18.875 56.5195 18.9062 56.5976 18.9062C56.707 18.9062 56.8164 18.8906 56.9257 18.8594C57.0351 18.8281 57.1445 18.8125 57.2539 18.8125C57.7226 18.8125 58.1836 18.8594 58.6367 18.9531C59.1054 19.0469 59.5664 19.1328 60.0195 19.2109C60.0507 19.3984 60.1289 19.5312 60.2539 19.6094C60.3945 19.6875 60.5429 19.7578 60.6992 19.8203V19.9141C60.6992 20.0391 60.7304 20.1406 60.7929 20.2188C60.7304 20.4375 60.6211 20.6016 60.4648 20.7109C60.3086 20.8203 60.1367 20.9141 59.9492 20.9922C60.0273 21.0547 60.0742 21.1406 60.0898 21.25C60.1054 21.3594 60.1132 21.4609 60.1132 21.5547V21.8359L59.9961 21.8125C59.7461 21.8125 59.6211 21.9297 59.6211 22.1641C59.4179 22.0391 59.1914 21.9609 58.9414 21.9297C58.707 21.8984 58.4726 21.8828 58.2382 21.8828C57.9257 21.8828 57.5976 21.8984 57.2539 21.9297C56.9101 21.9453 56.5742 21.9375 56.2461 21.9062C56.1211 22.0625 55.9648 22.1797 55.7773 22.2578C55.5898 22.3203 55.4023 22.3516 55.2148 22.3516C55.0117 22.3516 54.8164 22.3125 54.6289 22.2344C54.4414 22.1406 54.3086 22.0078 54.2304 21.8359C54.1523 21.8047 54.082 21.7891 54.0195 21.7891H53.8086C53.5586 21.7891 53.3086 21.8203 53.0586 21.8828C52.8242 21.9297 52.582 21.9922 52.332 22.0703C52.082 22.1328 51.832 22.2031 51.582 22.2812C51.3476 22.3438 51.1054 22.3828 50.8554 22.3984C50.7617 22.5234 50.6367 22.6094 50.4804 22.6562C50.3242 22.7031 50.1992 22.7891 50.1054 22.9141C49.7773 22.9766 49.4804 23.0859 49.2148 23.2422C48.9492 23.3828 48.6914 23.5391 48.4414 23.7109L47.7148 24.2031C47.4804 24.3594 47.2148 24.4922 46.9179 24.6016C46.6992 24.8359 46.4961 25.0234 46.3086 25.1641C46.1211 25.3047 45.8789 25.4297 45.582 25.5391C45.3945 25.6016 45.2851 25.6953 45.2539 25.8203C45.2382 25.9453 45.1757 26.0703 45.0664 26.1953C44.9726 26.3047 44.8554 26.3906 44.7148 26.4531C44.5898 26.5 44.4804 26.5859 44.3867 26.7109C44.3086 26.8203 44.2461 26.9531 44.1992 27.1094C44.1679 27.25 44.1289 27.3906 44.082 27.5312C44.0351 27.6719 43.9804 27.8125 43.9179 27.9531C43.8554 28.0781 43.7617 28.1875 43.6367 28.2812C43.6367 28.3438 43.6289 28.4062 43.6132 28.4688C43.6132 28.5312 43.6132 28.5859 43.6132 28.6328C43.6132 28.8516 43.6367 29.0781 43.6836 29.3125C43.7461 29.5312 43.7851 29.75 43.8007 29.9688C44.1132 30.5156 44.4804 31.0156 44.9023 31.4688C45.3242 31.9062 45.7773 32.3125 46.2617 32.6875C46.7461 33.0625 47.2461 33.4141 47.7617 33.7422C48.2929 34.0703 48.8164 34.3906 49.332 34.7031C49.5195 34.6875 49.6914 34.7109 49.8476 34.7734C50.0039 34.8203 50.1679 34.8516 50.3398 34.8672C50.5273 35.0078 50.7461 35.1172 50.9961 35.1953L51.7461 35.4297C51.9961 35.5078 52.2382 35.6016 52.4726 35.7109C52.707 35.8047 52.9023 35.9375 53.0586 36.1094C53.1367 36.125 53.207 36.1484 53.2695 36.1797C53.332 36.1953 53.4023 36.2031 53.4804 36.2031C53.5742 36.2031 53.6289 36.1719 53.6445 36.1094C54.3476 36.375 55.0351 36.6719 55.707 37C56.3789 37.3125 57.0898 37.5547 57.8398 37.7266C58.1367 37.9766 58.4648 38.1953 58.8242 38.3828C59.1836 38.5703 59.5429 38.7656 59.9023 38.9688C60.2617 39.1562 60.6054 39.3672 60.9336 39.6016C61.2617 39.8203 61.5507 40.0859 61.8007 40.3984C61.832 40.6953 61.8945 40.9844 61.9882 41.2656C62.0976 41.5312 62.1523 41.8203 62.1523 42.1328Z" fill="url(#paint1_angular_0_1)"/>
</g>
</g>
<g clip-path="url(#clip1_0_1)">
<g filter="url(#filter2_dd_0_1)">
<path d="M98.3125 22.1719C98.3125 22.2969 98.2969 22.4141 98.2656 22.5234C98.25 22.6328 98.2578 22.75 98.2891 22.875C97.8047 23.1719 97.4688 23.5625 97.2812 24.0469C97.0312 24.1719 96.8281 24.3438 96.6719 24.5625C96.5156 24.7656 96.3672 24.9844 96.2266 25.2188C96.1016 25.4375 95.9688 25.6562 95.8281 25.875C95.6875 26.0781 95.5 26.25 95.2656 26.3906V26.9062C95.1406 26.875 95.0547 26.8906 95.0078 26.9531C94.9766 27 94.9219 27.0391 94.8438 27.0703C94.5312 27.6641 94.2109 28.2578 93.8828 28.8516C93.5547 29.4297 93.1484 29.9531 92.6641 30.4219C92.5391 30.75 92.3984 31.0703 92.2422 31.3828C92.0859 31.6953 91.9219 32.0078 91.75 32.3203C91.5781 32.6328 91.4141 32.9453 91.2578 33.2578C91.1016 33.5703 90.9766 33.8906 90.8828 34.2188C90.5703 34.5469 90.3047 34.9141 90.0859 35.3203C89.8672 35.7109 89.6562 36.1094 89.4531 36.5156C89.2656 36.9062 89.0547 37.2969 88.8203 37.6875C88.6016 38.0781 88.3359 38.4375 88.0234 38.7656C88.0391 38.9062 88.0156 39.0234 87.9531 39.1172C87.8906 39.2109 87.8594 39.3125 87.8594 39.4219C87.8594 39.7812 88.0312 40.1875 88.375 40.6406C88.7344 41.0781 89.1562 41.5234 89.6406 41.9766C90.125 42.4141 90.6094 42.8203 91.0938 43.1953C91.5781 43.5703 91.9531 43.8594 92.2188 44.0625C92.625 43.8906 92.9844 43.7188 93.2969 43.5469C93.6094 43.3594 93.9844 43.25 94.4219 43.2188C94.6406 43.3281 94.8125 43.4766 94.9375 43.6641C95.0781 43.8359 95.1484 44.0391 95.1484 44.2734C95.1484 44.6328 95.0391 44.9766 94.8203 45.3047C94.6016 45.6172 94.3594 45.875 94.0938 46.0781C93.8438 46.125 93.5938 46.1641 93.3438 46.1953C93.0938 46.2266 92.8438 46.2422 92.5938 46.2422C92.0938 46.2422 91.5938 46.1953 91.0938 46.1016C90.6094 45.9922 90.125 45.875 89.6406 45.75C89.375 45.4062 89.0781 45.1094 88.75 44.8594C88.4375 44.5938 88.0859 44.3828 87.6953 44.2266C87.6797 44.0391 87.6328 43.8828 87.5547 43.7578C87.4766 43.6328 87.3828 43.5234 87.2734 43.4297C87.1641 43.3203 87.0391 43.2266 86.8984 43.1484C86.7734 43.0703 86.6484 42.9844 86.5234 42.8906C86.3672 42.9375 86.2266 43.0078 86.1016 43.1016C85.9766 43.1797 85.8359 43.2422 85.6797 43.2891C85.3828 44.0078 84.9844 44.6797 84.4844 45.3047C84.5156 45.5859 84.4609 45.8047 84.3203 45.9609C84.1953 46.1016 84.0312 46.25 83.8281 46.4062C83.75 46.8594 83.6016 47.2656 83.3828 47.625C83.1797 47.9844 82.9375 48.3359 82.6562 48.6797L82.6797 48.8672C82.6797 48.9297 82.6562 48.9844 82.6094 49.0312C82.5781 49.0781 82.5703 49.1562 82.5859 49.2656C82.3516 49.5469 82.1562 49.8672 82 50.2266C81.8438 50.6016 81.6953 50.9844 81.5547 51.375C81.4297 51.7656 81.3047 52.1562 81.1797 52.5469C81.0703 52.9375 80.9453 53.3047 80.8047 53.6484C80.8672 53.7891 80.8984 53.9531 80.8984 54.1406C80.8984 54.3125 80.8828 54.4844 80.8516 54.6562C80.8203 54.8281 80.8047 55 80.8047 55.1719C80.8047 55.3125 80.8281 55.4453 80.875 55.5703C80.9219 55.7109 81.0078 55.8281 81.1328 55.9219C81.3203 55.75 81.5625 55.6641 81.8594 55.6641C82.0312 55.6641 82.1953 55.6875 82.3516 55.7344C82.5234 55.7812 82.6797 55.8438 82.8203 55.9219C82.8828 56.0469 82.9141 56.1562 82.9141 56.25C82.9141 56.3594 82.8828 56.4531 82.8203 56.5312C82.7734 56.625 82.7109 56.7109 82.6328 56.7891C82.5703 56.8828 82.5 56.9688 82.4219 57.0469C82.3594 57.125 82.3203 57.2188 82.3047 57.3281C81.9453 57.3594 81.5859 57.4141 81.2266 57.4922C80.8828 57.5703 80.5469 57.6875 80.2188 57.8438C80.0312 57.8125 79.8594 57.7422 79.7031 57.6328C79.5625 57.5391 79.3984 57.4688 79.2109 57.4219C79.0078 57.1562 78.8516 56.8672 78.7422 56.5547C78.6172 56.2422 78.4609 55.9453 78.2734 55.6641C78.2734 55.3047 78.3203 54.9453 78.4141 54.5859C78.5078 54.2422 78.6094 53.8984 78.7188 53.5547C78.8125 53.2109 78.8984 52.8594 78.9766 52.5C79.0547 52.1562 79.0781 51.8047 79.0469 51.4453C79.2031 51.3672 79.3281 51.2422 79.4219 51.0703C79.5156 50.9141 79.5859 50.7344 79.6328 50.5312C79.6953 50.3438 79.75 50.1484 79.7969 49.9453C79.8438 49.7578 79.8984 49.5859 79.9609 49.4297C80.1328 49.3203 80.2578 49.1797 80.3359 49.0078C80.4297 48.8516 80.5625 48.7188 80.7344 48.6094C80.7344 48.5781 80.7266 48.5469 80.7109 48.5156C80.7109 48.5 80.7109 48.4766 80.7109 48.4453C80.6953 48.4141 80.6797 48.3906 80.6641 48.375C80.6484 48.375 80.6406 48.3594 80.6406 48.3281C80.6406 48.2969 80.6328 48.2656 80.6172 48.2344C80.6172 48.2188 80.625 48.1953 80.6406 48.1641L80.875 47.8594C81.0938 47.5781 81.2578 47.3203 81.3672 47.0859C81.4766 46.8359 81.6016 46.5547 81.7422 46.2422C81.8672 45.9453 82.0234 45.6484 82.2109 45.3516C82.3984 45.0547 82.5781 44.7578 82.75 44.4609C83.1562 43.7266 83.5469 43 83.9219 42.2812C84.3125 41.5469 84.7266 40.8203 85.1641 40.1016C85.0391 40.0078 84.9375 39.8984 84.8594 39.7734C84.7812 39.6328 84.7031 39.4922 84.625 39.3516C84.5625 39.2109 84.4922 39.0781 84.4141 38.9531C84.3359 38.8125 84.2266 38.6953 84.0859 38.6016C83.7578 37.7422 83.3828 36.9062 82.9609 36.0938C82.5547 35.2656 82.1562 34.4453 81.7656 33.6328C81.625 33.3359 81.4922 33.0391 81.3672 32.7422C81.2578 32.4297 81.125 32.1406 80.9688 31.875C80.9219 31.7969 80.8672 31.7656 80.8047 31.7812C80.7422 31.7969 80.6875 31.7734 80.6406 31.7109C80.5156 31.3516 80.4062 31.0312 80.3125 30.75L79.9609 29.6953C80.0234 29.3828 80.1641 29.1562 80.3828 29.0156C80.6016 28.875 80.8594 28.8047 81.1562 28.8047C81.3906 28.8047 81.6406 28.8438 81.9062 28.9219C82.0469 29.0781 82.1797 29.25 82.3047 29.4375C82.4297 29.6094 82.5781 29.7734 82.75 29.9297V30.5391C83.2031 31.4609 83.625 32.3828 84.0156 33.3047C84.4219 34.2266 84.8594 35.1484 85.3281 36.0703C85.5 36.1016 85.6406 36.1719 85.75 36.2812C85.8594 36.3906 85.9609 36.5078 86.0547 36.6328C86.1484 36.7578 86.2422 36.875 86.3359 36.9844C86.4453 37.0938 86.5938 37.1562 86.7812 37.1719C86.8438 37.1406 86.9375 37.0391 87.0625 36.8672C87.1875 36.6797 87.3125 36.4844 87.4375 36.2812C87.5781 36.0625 87.6953 35.8516 87.7891 35.6484C87.8984 35.4453 87.9531 35.3047 87.9531 35.2266V35.0625C88.9844 33.6406 89.8516 32.1328 90.5547 30.5391C90.7109 30.4609 90.8359 30.3594 90.9297 30.2344C91.0234 30.0938 91.1094 29.9531 91.1875 29.8125C91.2812 29.6562 91.375 29.5078 91.4688 29.3672C91.5625 29.2266 91.6797 29.1094 91.8203 29.0156C91.8984 28.6875 92.0234 28.3828 92.1953 28.1016C92.3672 27.8203 92.5469 27.5391 92.7344 27.2578C92.9219 26.9766 93.1016 26.6953 93.2734 26.4141C93.4453 26.1172 93.5781 25.8047 93.6719 25.4766C93.8438 25.4141 93.9766 25.3125 94.0703 25.1719C94.1797 25.0312 94.2734 24.8828 94.3516 24.7266C94.4297 24.5703 94.5156 24.4219 94.6094 24.2812C94.7031 24.1406 94.8359 24.0391 95.0078 23.9766C95.1172 23.4609 95.3281 23.0391 95.6406 22.7109C95.9531 22.3828 96.3594 22.1328 96.8594 21.9609L96.9531 21.7031C97.0156 21.7344 97.125 21.7656 97.2812 21.7969C97.4375 21.8125 97.5859 21.8359 97.7266 21.8672C97.8828 21.8828 98.0156 21.9141 98.125 21.9609C98.25 22.0078 98.3125 22.0781 98.3125 22.1719Z" fill="url(#paint2_angular_0_1)"/>
</g>
</g>
<defs>
<filter id="filter0_dd_0_1" x="54.5592" y="36.3125" width="38.8906" height="25.9297" filterUnits="userSpaceOnUse" color-interpolation-filters="sRGB">
<feFlood flood-opacity="0" result="BackgroundImageFix"/>
<feColorMatrix in="SourceAlpha" type="matrix" values="0 0 0 0 0 0 0 0 0 0 0 0 0 0 0 0 0 0 127 0" result="hardAlpha"/>
<feOffset dy="4"/>
<feGaussianBlur stdDeviation="2"/>
<feComposite in2="hardAlpha" operator="out"/>
<feColorMatrix type="matrix" values="0 0 0 0 0 0 0 0 0 0 0 0 0 0 0 0 0 0 0.25 0"/>
<feBlend mode="normal" in2="BackgroundImageFix" result="effect1_dropShadow_0_1"/>
<feColorMatrix in="SourceAlpha" type="matrix" values="0 0 0 0 0 0 0 0 0 0 0 0 0 0 0 0 0 0 127 0" result="hardAlpha"/>
<feOffset dy="4"/>
<feGaussianBlur stdDeviation="2"/>
<feComposite in2="hardAlpha" operator="out"/>
<feColorMatrix type="matrix" values="0 0 0 0 0 0 0 0 0 0 0 0 0 0 0 0 0 0 0.25 0"/>
<feBlend mode="normal" in2="effect1_dropShadow_0_1" result="effect2_dropShadow_0_1"/>
<feBlend mode="normal" in="SourceGraphic" in2="effect2_dropShadow_0_1" result="shape"/>
</filter>
<filter id="filter1_dd_0_1" x="37.2226" y="18.7188" width="28.9297" height="36.6641" filterUnits="userSpaceOnUse" color-interpolation-filters="sRGB">
<feFlood flood-opacity="0" result="BackgroundImageFix"/>
<feColorMatrix in="SourceAlpha" type="matrix" values="0 0 0 0 0 0 0 0 0 0 0 0 0 0 0 0 0 0 127 0" result="hardAlpha"/>
<feOffset dy="4"/>
<feGaussianBlur stdDeviation="2"/>
<feComposite in2="hardAlpha" operator="out"/>
<feColorMatrix type="matrix" values="0 0 0 0 0 0 0 0 0 0 0 0 0 0 0 0 0 0 0.25 0"/>
<feBlend mode="normal" in2="BackgroundImageFix" result="effect1_dropShadow_0_1"/>
<feColorMatrix in="SourceAlpha" type="matrix" values="0 0 0 0 0 0 0 0 0 0 0 0 0 0 0 0 0 0 127 0" result="hardAlpha"/>
<feOffset dy="4"/>
<feGaussianBlur stdDeviation="2"/>
<feComposite in2="hardAlpha" operator="out"/>
<feColorMatrix type="matrix" values="0 0 0 0 0 0 0 0 0 0 0 0 0 0 0 0 0 0 0.25 0"/>
<feBlend mode="normal" in2="effect1_dropShadow_0_1" result="effect2_dropShadow_0_1"/>
<feBlend mode="normal" in="SourceGraphic" in2="effect2_dropShadow_0_1" result="shape"/>
</filter>
<filter id="filter2_dd_0_1" x="74.2734" y="21.7031" width="28.0391" height="44.1406" filterUnits="userSpaceOnUse" color-interpolation-filters="sRGB">
<feFlood flood-opacity="0" result="BackgroundImageFix"/>
<feColorMatrix in="SourceAlpha" type="matrix" values="0 0 0 0 0 0 0 0 0 0 0 0 0 0 0 0 0 0 127 0" result="hardAlpha"/>
<feOffset dy="4"/>
<feGaussianBlur stdDeviation="2"/>
<feComposite in2="hardAlpha" operator="out"/>
<feColorMatrix type="matrix" values="0 0 0 0 0 0 0 0 0 0 0 0 0 0 0 0 0 0 0.25 0"/>
<feBlend mode="normal" in2="BackgroundImageFix" result="effect1_dropShadow_0_1"/>
<feColorMatrix in="SourceAlpha" type="matrix" values="0 0 0 0 0 0 0 0 0 0 0 0 0 0 0 0 0 0 127 0" result="hardAlpha"/>
<feOffset dy="4"/>
<feGaussianBlur stdDeviation="2"/>
<feComposite in2="hardAlpha" operator="out"/>
<feColorMatrix type="matrix" values="0 0 0 0 0 0 0 0 0 0 0 0 0 0 0 0 0 0 0.25 0"/>
<feBlend mode="normal" in2="effect1_dropShadow_0_1" result="effect2_dropShadow_0_1"/>
<feBlend mode="normal" in="SourceGraphic" in2="effect2_dropShadow_0_1" result="shape"/>
</filter>
<radialGradient id="paint0_angular_0_1" cx="0" cy="0" r="1" gradientUnits="userSpaceOnUse" gradientTransform="translate(59.8172 61.3125) rotate(-72.2817) scale(66.0717 41.2211)">
<stop offset="0.0703864" stop-color="#A55E40"/>
<stop offset="0.623628" stop-color="#A46859"/>
<stop offset="0.809569" stop-color="#001765"/>
</radialGradient>
<radialGradient id="paint1_angular_0_1" cx="0" cy="0" r="1" gradientUnits="userSpaceOnUse" gradientTransform="translate(43.775 51.3125) rotate(-66.9264) scale(68.4101 53.0827)">
<stop offset="0.0703864" stop-color="#A55E40"/>
<stop offset="0.623628" stop-color="#A46859"/>
<stop offset="0.809569" stop-color="#001765"/>
</radialGradient>
<radialGradient id="paint2_angular_0_1" cx="0" cy="0" r="1" gradientUnits="userSpaceOnUse" gradientTransform="translate(79.4324 56.3125) rotate(-77.9759) scale(64.3493 28.2163)">
<stop offset="0.0703864" stop-color="#A55E40"/>
<stop offset="0.623628" stop-color="#A46859"/>
<stop offset="0.809569" stop-color="#001765"/>
</radialGradient>
<clipPath id="clip0_0_1">
<rect width="41.0337" height="61" fill="white" transform="translate(39.1685 5)"/>
</clipPath>
<clipPath id="clip1_0_1">
<rect width="19.5294" height="61" fill="white" transform="translate(75.4545 0.447754)"/>
</clipPath>
</defs>
</svg>
